<?xml version="1.0" standalone="no"?>
<!DOCTYPE svg PUBLIC "-//W3C//DTD SVG 20010904//EN"
 "http://www.w3.org/TR/2001/REC-SVG-20010904/DTD/svg10.dtd">
<svg version="1.0" xmlns="http://www.w3.org/2000/svg"
 width="400.000000pt" height="400.000000pt" viewBox="0 0 400.000000 400.000000"
 preserveAspectRatio="xMidYMid meet">
<metadata>
Created by potrace 1.11, written by Peter Selinger 2001-2013
</metadata>
<g transform="translate(0.000000,400.000000) scale(0.100000,-0.100000)"
fill="#000000" stroke="none">
<path d="M373 3715 c17 -118 127 -263 301 -394 52 -39 213 -148 358 -242 265
-172 444 -293 463 -312 31 -32 -666 383 -802 476 -70 49 -72 49 -126 43 -30
-4 -63 -13 -73 -21 -18 -13 -18 -15 1 -51 38 -71 339 -297 689 -518 78 -48
130 -85 116 -81 -83 25 -370 177 -533 281 l-68 44 -35 -16 c-41 -20 -51 -50
-35 -106 18 -60 75 -115 164 -160 100 -50 284 -111 404 -135 51 -10 93 -20 93
-23 0 -3 -41 -2 -92 2 -105 9 -242 39 -340 75 -77 27 -97 23 -123 -27 -35 -67
-4 -98 124 -126 90 -20 242 -14 369 14 105 24 94 13 -28 -29 -88 -31 -105 -33
-227 -34 -142 0 -149 -3 -114 -46 18 -23 25 -24 128 -23 89 1 123 6 193 29
121 39 163 62 154 83 -4 9 -12 38 -17 63 l-10 46 -103 37 c-91 32 -219 86
-169 70 96 -29 262 -74 271 -74 7 0 18 15 24 34 6 19 20 45 30 59 19 23 19 23
-13 42 -82 47 -447 277 -447 282 0 3 19 -6 43 -20 91 -53 365 -206 413 -230
l52 -26 53 29 c30 15 87 38 127 50 l74 22 -84 45 c-147 79 -318 183 -510 309
-211 140 -262 184 -76 65 229 -146 658 -381 696 -381 19 0 5 39 -27 74 -37 41
-138 104 -271 171 -147 74 -245 141 -320 222 -82 87 -76 94 9 11 84 -82 179
-144 328 -214 219 -104 313 -180 313 -252 0 -51 -20 -68 -110 -93 -83 -23
-165 -59 -205 -91 -55 -43 -89 -156 -65 -213 6 -15 9 -5 10 35 1 73 29 132 77
164 49 32 96 43 218 50 151 9 205 31 205 83 0 82 -122 184 -366 306 -182 91
-284 154 -385 234 -47 38 -90 68 -95 66 -12 -4 -211 109 -416 238 -86 54 -171
105 -189 114 l-32 17 6 -47z"/>
<path d="M3444 3563 c-245 -124 -461 -223 -488 -223 -14 0 -37 -10 -53 -23
-96 -78 -209 -136 -445 -232 -272 -110 -402 -197 -415 -279 -11 -69 40 -96
237 -126 100 -16 170 -48 206 -96 27 -35 29 -44 29 -124 0 -67 3 -84 11 -71
19 28 25 86 13 140 -19 89 -83 145 -241 212 -102 44 -118 58 -118 103 0 22 12
41 48 75 53 52 131 92 293 153 60 22 143 58 185 78 41 21 70 32 64 25 -15 -19
-153 -84 -292 -140 -150 -60 -235 -111 -262 -158 -11 -19 -18 -39 -14 -43 14
-13 251 79 494 191 42 20 79 34 81 31 6 -6 -290 -151 -427 -210 -58 -25 -106
-49 -107 -53 -2 -4 30 -21 70 -37 39 -16 93 -45 118 -63 26 -18 50 -33 54 -33
4 0 75 29 157 65 83 36 152 64 154 62 3 -2 -61 -36 -141 -76 -138 -69 -157
-82 -136 -96 5 -3 17 -28 26 -55 9 -27 20 -52 23 -54 4 -2 41 2 82 9 73 13
111 12 54 0 -16 -4 -54 -15 -84 -24 -47 -15 -55 -22 -62 -50 -9 -33 -66 -134
-80 -139 -5 -2 -27 -19 -49 -38 -23 -19 -46 -34 -52 -34 -7 0 -32 -14 -56 -30
-24 -17 -47 -30 -52 -30 -4 0 -10 14 -14 31 -15 67 -102 133 -191 146 -43 6
-45 7 -39 32 3 14 15 39 26 54 16 22 18 31 9 42 -16 19 -29 10 -47 -32 -13
-34 -15 -34 -38 -19 -20 13 -25 14 -36 0 -6 -8 -10 -16 -8 -17 2 -1 16 -9 32
-17 41 -21 34 -38 -20 -45 -136 -18 -198 -88 -212 -240 -6 -65 -7 -68 -20 -46
-10 18 -10 25 -1 31 15 9 11 21 -14 42 -18 15 -19 19 -6 28 13 9 13 10 0 10
-13 0 -13 1 0 10 13 8 12 10 -4 10 -15 0 -16 3 -6 15 10 12 10 15 -1 15 -8 0
-52 18 -99 40 -47 22 -99 40 -116 40 -19 0 -41 10 -59 26 -15 14 -28 24 -29
22 -22 -50 -43 -78 -64 -88 -94 -42 -172 -142 -172 -219 l0 -36 48 -1 c26 0
61 -6 79 -14 31 -13 34 -12 78 19 50 36 75 35 75 -2 0 -37 -49 -124 -87 -156
l-35 -28 35 -7 c71 -13 97 -68 97 -206 0 -91 2 -100 22 -114 28 -20 38 -20 38
-1 0 8 4 15 9 15 6 0 6 12 0 32 -12 43 2 54 31 23 15 -16 34 -25 53 -25 28 0
29 1 15 18 -15 17 -31 62 -22 62 3 0 17 -9 32 -20 15 -10 41 -22 57 -26 l30
-7 -22 25 c-32 34 -33 118 -3 118 12 0 34 -7 50 -15 30 -15 30 -15 30 11 l0
27 23 -21 c33 -31 39 -28 35 20 -3 43 7 55 66 73 14 4 16 8 6 19 -16 20 4 56
30 56 11 0 20 6 20 13 0 6 8 -2 16 -20 9 -17 25 -40 36 -50 19 -17 21 -17 49
15 16 18 29 39 29 47 0 8 5 15 10 15 6 0 10 -8 10 -17 0 -15 2 -16 10 -3 15
23 12 57 -6 64 -9 4 -17 5 -18 4 -17 -43 -54 -103 -65 -103 -11 0 -52 63 -64
98 -5 17 -39 -6 -34 -24 4 -14 0 -19 -14 -19 -12 0 -19 7 -19 20 0 18 -3 19
-20 8 -15 -10 -22 -10 -31 -1 -10 10 -8 14 7 19 10 4 35 14 54 23 l35 15 -44
4 c-79 6 -119 54 -108 133 10 79 52 90 135 34 42 -29 56 -34 71 -25 28 14 56
13 70 -4 11 -13 19 -10 57 20 73 55 116 58 134 9 18 -48 12 -84 -22 -125 -29
-35 -38 -40 -76 -40 -50 0 -48 -13 6 -30 46 -15 62 -35 62 -74 l-1 -31 -14 32
c-15 35 -55 64 -55 40 0 -8 -3 -28 -6 -43 -5 -24 1 -37 33 -74 29 -33 43 -61
52 -103 14 -63 60 -132 61 -90 0 27 39 133 48 132 4 0 21 -30 39 -67 18 -37
50 -87 72 -112 36 -41 40 -43 47 -25 70 192 115 258 209 301 65 31 92 30 203
-7 72 -24 95 -36 106 -56 l13 -26 17 48 c28 83 22 112 -28 161 -25 23 -55 62
-67 86 -12 24 -52 73 -89 109 -60 60 -64 66 -37 58 16 -5 63 -11 103 -15 69
-6 74 -5 98 19 45 45 36 57 -44 57 -106 0 -249 37 -330 86 -29 17 -22 16 86
-15 96 -28 224 -40 309 -29 125 17 163 54 126 126 -11 22 -29 43 -39 47 -11 3
-58 -4 -105 -15 -103 -24 -239 -40 -322 -39 -54 1 -46 3 75 24 322 56 492 136
530 250 16 49 6 79 -34 105 l-35 21 -119 -60 c-174 -87 -496 -220 -467 -193 6
5 69 40 140 78 408 213 695 404 695 461 0 26 -14 36 -66 51 -64 18 -79 15
-167 -35 -118 -67 -727 -358 -727 -348 0 7 99 62 390 215 356 188 493 275 597
382 76 78 154 234 125 252 -4 3 -85 -34 -178 -81z m-2104 -1465 c0 -21 -31
-39 -49 -28 -11 6 -9 14 9 40 23 33 39 28 40 -12z m958 34 c9 -7 8 -13 -8 -27
-20 -18 -20 -18 -20 8 0 28 6 32 28 19z m480 -62 c59 -36 62 -54 11 -58 -43
-4 -62 11 -88 72 l-21 48 23 -14 c12 -9 46 -30 75 -48z"/>
<path d="M1330 2385 c-20 -24 -159 -90 -233 -110 -37 -10 -67 -21 -67 -25 0
-4 9 -15 20 -25 16 -15 30 -17 78 -12 68 7 112 24 169 66 54 39 76 79 58 104
-11 15 -14 15 -25 2z"/>
<path d="M1800 2112 c0 -21 7 -47 15 -59 14 -20 17 -20 57 -7 78 26 73 23 55
41 -13 13 -19 14 -31 4 -23 -19 -56 -4 -63 30 -8 44 -33 37 -33 -9z"/>
<path d="M2170 2127 c0 -37 -24 -53 -57 -38 -19 9 -29 9 -37 1 -14 -14 18 -40
50 -40 13 0 25 -4 29 -10 17 -28 60 36 53 81 -4 33 -38 38 -38 6z"/>
<path d="M1860 2120 c0 -5 5 -10 10 -10 6 0 10 5 10 10 0 6 -4 10 -10 10 -5 0
-10 -4 -10 -10z"/>
<path d="M2125 2120 c-3 -5 -2 -10 4 -10 5 0 13 5 16 10 3 6 2 10 -4 10 -5 0
-13 -4 -16 -10z"/>
<path d="M1966 2091 c-10 -11 -14 -26 -10 -37 3 -11 2 -15 -3 -9 -5 7 -24 5
-58 -6 -28 -9 -43 -19 -35 -21 8 -3 29 -9 45 -14 23 -7 37 -23 60 -69 17 -33
34 -60 40 -60 5 0 20 25 32 55 22 56 48 80 91 80 12 0 22 4 22 9 0 11 -25 21
-50 21 -11 0 -32 16 -47 35 -31 39 -61 45 -87 16z m94 -41 c0 -5 -4 -10 -10
-10 -5 0 -10 5 -10 10 0 6 5 10 10 10 6 0 10 -4 10 -10z"/>
<path d="M1346 2000 c-44 -33 -71 -37 -100 -15 -23 18 -69 19 -98 4 -33 -18
-58 -86 -58 -161 0 -60 3 -71 28 -97 29 -32 88 -58 64 -28 -29 35 -7 120 44
168 29 28 31 12 3 -42 -11 -23 -18 -43 -16 -45 7 -8 108 65 138 99 48 53 74
148 42 147 -4 0 -26 -14 -47 -30z"/>
<path d="M1895 1791 c-17 -53 -35 -75 -35 -44 0 16 -2 16 -19 -2 -19 -19 -19
-22 -3 -72 9 -29 21 -53 25 -53 20 0 69 45 87 80 27 54 25 81 -9 114 l-29 28
-17 -51z"/>
<path d="M2061 1806 l-34 -35 17 -45 c23 -61 106 -134 106 -93 0 7 8 29 19 49
18 36 18 37 -5 65 l-23 28 -1 -25 c-1 -24 -1 -24 -12 -5 -6 10 -16 36 -23 57
l-11 38 -33 -34z"/>
<path d="M1986 1682 c-9 -18 -20 -32 -25 -32 -5 0 -12 -8 -15 -17 -4 -11 4
-28 25 -49 l32 -33 33 36 c31 33 32 37 19 56 -8 12 -15 17 -15 12 -1 -6 -9 5
-19 24 l-18 35 -17 -32z"/>
</g>
</svg>
